<svg width="35" height="35" viewBox="0 0 35 35" fill="none" xmlns="http://www.w3.org/2000/svg">
<rect x="2" y="2" width="31" height="31" rx="6" stroke="#B9A6F0" stroke-width="4"/>
<path d="M12.4793 17.0707L11.1333 15.5914L8.17472 18.2833L9.52069 19.7626L12.4793 17.0707ZM15.1702 23L13.6909 24.346C14.072 24.7649 14.6129 25.0025 15.1792 25C15.7455 24.9974 16.2842 24.7549 16.6615 24.3327L15.1702 23ZM26.4913 13.3327C27.2273 12.509 27.1563 11.2447 26.3327 10.5087C25.509 9.77268 24.2447 9.84371 23.5087 10.6673L26.4913 13.3327ZM11 18.4167L9.52069 19.7626L13.6909 24.346L15.1702 23L16.6495 21.654L12.4793 17.0707L11 18.4167ZM15.1702 23L16.6615 24.3327L26.4913 13.3327L25 12L23.5087 10.6673L13.6789 21.6673L15.1702 23Z" fill="#B9A6F0"/>
</svg>
